<?xml version="1.0" standalone="no"?>
<!DOCTYPE svg PUBLIC "-//W3C//DTD SVG 20010904//EN"
 "http://www.w3.org/TR/2001/REC-SVG-20010904/DTD/svg10.dtd">
<svg version="1.0" xmlns="http://www.w3.org/2000/svg"
 width="748.000000pt" height="748.000000pt" viewBox="0 0 748.000000 748.000000"
 preserveAspectRatio="xMidYMid meet">
<metadata>
Created by potrace 1.14, written by Peter Selinger 2001-2017
</metadata>
<g transform="translate(0.000000,748.000000) scale(0.100000,-0.100000)"
fill="#000000" stroke="none">
<path d="M600 6329 c-19 -3 -50 -9 -69 -13 -19 -4 -59 -19 -90 -33 -164 -76
-286 -231 -319 -403 -11 -59 -5 -255 8 -255 1 0 3 -7 5 -15 5 -28 48 -124 69
-155 11 -16 50 -60 87 -96 66 -65 135 -106 229 -136 56 -17 200 -25 260 -13
100 19 212 75 284 142 35 31 39 30 111 -35 46 -42 51 -44 67 -30 27 24 22 36
-24 74 -92 73 -88 64 -53 118 100 151 105 398 11 561 -50 88 -112 154 -191
204 -42 27 -106 58 -125 62 -3 0 -25 6 -50 13 -52 15 -159 20 -210 10z m249
-85 c157 -59 266 -173 313 -328 85 -280 -90 -580 -376 -643 -17 -4 -72 -7
-121 -7 -75 1 -104 6 -163 28 -40 16 -79 34 -87 42 -7 8 -18 14 -22 14 -14 0
-100 87 -133 135 -64 94 -85 165 -85 295 1 246 180 446 440 493 51 9 173 -6
234 -29z"/>
<path d="M1294 5259 c-19 -21 -19 -21 36 -71 75 -68 82 -71 102 -43 17 22 17
24 -24 56 -23 19 -46 39 -52 44 -38 34 -43 35 -62 14z"/>
<path d="M1477 5112 c-18 -19 -23 -42 -9 -42 4 0 27 -19 52 -41 64 -58 72 -61
92 -34 17 22 16 23 -35 66 -29 23 -59 48 -68 56 -13 11 -18 10 -32 -5z"/>
<path d="M1650 4949 c-7 -11 -10 -22 -8 -24 33 -32 133 -103 139 -99 5 3 13
14 19 24 8 16 0 26 -54 69 -35 28 -69 51 -75 51 -5 0 -15 -9 -21 -21z"/>
<path d="M1835 4800 c-17 -19 -16 -20 16 -47 18 -15 47 -40 63 -55 36 -33 38
-34 61 -8 19 21 18 21 -11 46 -16 14 -44 38 -62 55 -40 34 -44 35 -67 9z"/>
<path d="M2016 4651 c-17 -19 -16 -21 15 -48 18 -15 46 -40 62 -55 36 -34 39
-34 63 -7 19 21 18 21 -6 41 -14 11 -43 35 -65 54 -22 19 -43 34 -46 34 -3 0
-14 -9 -23 -19z"/>
<path d="M2197 4499 c-18 -21 -17 -23 44 -74 67 -56 68 -56 89 -45 31 17 24
31 -38 81 -76 61 -76 61 -95 38z"/>
<path d="M2377 4349 c-17 -19 -17 -21 15 -49 108 -94 101 -90 120 -73 10 9 18
21 18 27 0 10 -123 117 -132 115 -2 0 -11 -9 -21 -20z"/>
<path d="M2560 4194 c-8 -15 -10 -28 -4 -32 116 -101 124 -106 139 -86 22 29
19 36 -43 85 -77 62 -77 62 -92 33z"/>
<path d="M2740 4045 c-17 -20 -13 -26 58 -85 l62 -52 20 24 20 23 -31 25 c-17
13 -45 37 -62 52 -36 32 -49 34 -67 13z"/>
<path d="M2923 3895 c-18 -20 -16 -30 6 -46 10 -8 40 -32 66 -54 l47 -39 19
23 19 23 -63 54 c-67 57 -75 61 -94 39z"/>
<path d="M3104 3739 c-20 -22 -20 -22 68 -93 12 -10 30 -25 38 -31 12 -11 18
-9 33 11 17 23 17 24 -9 46 -14 13 -42 38 -62 55 -21 18 -40 33 -43 33 -3 0
-14 -9 -25 -21z"/>
<path d="M3293 3598 c-24 -31 -21 -38 41 -87 35 -28 68 -51 73 -51 8 0 37 40
31 44 -2 1 -31 25 -64 54 -34 29 -64 52 -67 52 -2 0 -9 -6 -14 -12z"/>
<path d="M3473 3448 c-24 -31 -20 -38 47 -92 l69 -56 17 25 c9 14 15 27 13 29
-2 1 -32 26 -67 54 -35 29 -65 52 -66 52 -2 0 -8 -6 -13 -12z"/>
<path d="M3650 3287 l-21 -22 33 -28 c102 -87 104 -88 122 -68 9 9 16 22 15
27 0 5 -29 33 -64 61 l-64 53 -21 -23z"/>
<path d="M3831 3136 l-21 -23 67 -56 c63 -53 68 -56 85 -40 28 26 26 30 -47
88 -21 17 -44 35 -51 42 -9 9 -16 7 -33 -11z"/>
<path d="M5065 3027 c-22 -5 -47 -10 -55 -11 -41 -6 -156 -64 -196 -98 -86
-75 -125 -126 -169 -222 -19 -42 -35 -80 -35 -84 0 -4 -3 -24 -7 -45 -4 -28
-9 -35 -18 -27 -8 7 -17 4 -30 -10 -17 -19 -17 -21 0 -40 10 -11 24 -20 31
-20 7 0 11 -8 10 -17 -5 -35 25 -158 53 -220 49 -104 113 -177 209 -240 58
-37 173 -83 209 -83 13 0 49 -13 80 -30 68 -35 156 -59 225 -61 44 -2 47 -3
33 -19 -14 -15 -13 -18 3 -33 52 -47 199 -93 308 -96 20 -1 45 -14 72 -37 l42
-36 20 24 c19 23 19 23 -3 40 -21 16 -20 16 31 32 111 33 252 127 239 160 -11
29 -37 30 -65 4 -47 -45 -115 -81 -188 -103 -52 -15 -69 -24 -66 -35 3 -8 -9
-2 -26 13 -29 28 -31 28 -55 13 -35 -24 -127 -6 -227 42 -42 21 -50 28 -34 30
12 2 24 11 27 21 8 34 -8 45 -61 42 -49 -2 -92 14 -92 34 0 5 36 27 79 47 42
20 101 58 129 83 29 26 52 43 53 38 1 -4 0 -20 -1 -35 -1 -25 2 -28 32 -28
l33 0 1 63 c3 109 24 175 84 263 28 42 29 44 10 54 -17 9 -20 22 -21 78 0 67
-22 167 -52 232 l-16 36 49 -1 c32 -1 56 -7 68 -19 13 -11 21 -13 24 -6 6 19
40 14 110 -14 72 -29 82 -28 91 4 4 16 -4 24 -41 42 -26 11 -77 29 -114 38
-39 11 -83 30 -105 48 -66 51 -174 98 -249 107 -11 2 -43 14 -70 28 -113 56
-257 78 -359 54z m225 -65 l35 -9 -45 -12 c-66 -18 -114 -37 -117 -48 -2 -5 3
-17 10 -27 13 -18 16 -18 64 -2 85 28 185 37 216 20 37 -21 109 -98 96 -102
-97 -30 -259 -145 -259 -185 0 -8 9 -18 21 -23 17 -8 28 -1 68 37 44 42 140
97 199 114 19 6 25 0 44 -42 34 -76 46 -138 45 -221 -1 -165 -82 -316 -218
-410 -43 -29 -137 -72 -159 -72 -11 0 -37 54 -54 112 -11 35 -18 44 -40 46
-23 3 -26 0 -26 -27 0 -17 11 -55 24 -86 14 -30 22 -56 18 -58 -4 -2 -28 -3
-54 -3 -35 1 -54 8 -75 26 -54 49 -85 86 -120 142 -35 56 -36 57 -59 41 l-24
-16 26 -46 c15 -25 39 -61 53 -80 l25 -34 -24 8 c-14 4 -27 10 -30 14 -3 3
-18 13 -34 21 -50 25 -150 133 -177 190 -48 98 -59 140 -61 236 -5 237 165
448 402 499 57 13 170 11 230 -3z m342 -126 c37 -17 61 -39 36 -34 -8 2 -13
-6 -12 -19 1 -13 -2 -21 -5 -19 -11 7 -75 100 -65 94 5 -2 26 -12 46 -22z"/>
<path d="M5080 2851 c-14 -8 -31 -21 -37 -28 -7 -6 -23 -20 -36 -30 -50 -39
-138 -185 -153 -255 -21 -96 -24 -188 -9 -263 9 -50 12 -53 40 -47 26 5 27 6
20 56 -19 136 -6 225 47 331 31 64 107 153 157 185 22 15 23 18 10 42 -13 25
-15 25 -39 9z"/>
<path d="M5217 2497 c-22 -45 -39 -87 -38 -94 0 -2 -5 -22 -12 -45 -7 -24 -12
-70 -12 -103 0 -59 0 -60 29 -60 29 0 29 1 32 60 1 33 5 75 8 94 7 36 43 128
59 148 10 14 3 29 -22 43 -16 8 -22 2 -44 -43z"/>
<path d="M4016 2991 c-23 -25 -20 -33 22 -68 20 -17 47 -41 59 -52 24 -22 48
-19 58 7 4 11 -8 29 -39 57 -85 78 -82 76 -100 56z"/>
<path d="M4193 2835 c-20 -22 -16 -30 29 -66 23 -19 50 -42 60 -51 23 -23 34
-23 52 3 14 20 13 23 -12 43 -15 11 -43 35 -62 53 -39 36 -49 39 -67 18z"/>
<path d="M4376 2684 c-23 -22 -21 -27 31 -70 25 -21 52 -45 59 -51 17 -18 28
-16 48 6 16 18 15 21 -39 67 -74 64 -80 67 -99 48z"/>
<path d="M5843 2685 l-21 -15 31 -57 c21 -38 27 -58 19 -61 -7 -2 -35 -22 -63
-44 l-51 -40 22 -20 c20 -18 23 -19 43 -4 59 43 68 48 73 43 11 -11 14 -133 4
-189 -28 -152 -157 -330 -242 -334 -54 -3 -56 -4 -51 -22 3 -14 -5 -22 -35
-34 -35 -14 -39 -19 -35 -42 5 -25 23 -47 23 -28 0 5 6 9 13 9 6 0 22 3 34 7
19 6 25 2 37 -28 15 -37 22 -41 50 -30 20 8 20 27 1 64 -15 28 -14 30 12 47
16 10 34 23 40 30 7 6 23 20 36 30 38 30 106 122 132 180 71 155 69 338 -6
491 -17 34 -34 62 -38 62 -4 0 -16 -7 -28 -15z"/>
<path d="M6045 2670 c-14 -16 -15 -23 -6 -34 10 -12 6 -17 -28 -26 -38 -10
-39 -12 -30 -39 l10 -28 55 13 c52 12 56 11 75 -9 11 -12 37 -56 56 -97 20
-41 37 -76 38 -78 1 -1 14 2 28 7 24 10 25 11 11 49 -14 43 -48 107 -68 132
-15 18 -30 52 -28 63 1 4 -7 7 -17 7 -11 0 -21 3 -23 8 -2 4 -15 17 -29 30
-26 22 -26 22 -44 2z"/>
<path d="M6212 2599 c-2 -24 2 -30 25 -35 16 -3 52 -13 81 -21 46 -14 55 -14
63 -2 5 8 8 20 6 28 -2 16 -81 46 -137 54 -34 4 -36 2 -38 -24z"/>
<path d="M6436 2526 c-15 -24 -14 -26 27 -58 23 -18 51 -43 62 -55 l21 -23 23
21 23 21 -27 28 c-15 15 -46 42 -70 59 l-43 31 -16 -24z"/>
<path d="M6799 2383 c-11 -3 -14 -12 -11 -32 4 -26 6 -27 55 -25 29 1 55 2 60
3 4 0 7 12 7 26 0 14 -3 26 -7 26 -19 4 -90 5 -104 2z"/>
<path d="M6602 2364 l-22 -15 25 -47 c13 -26 29 -59 34 -74 10 -28 25 -34 54
-22 14 5 14 10 1 46 -8 22 -14 42 -14 43 0 2 13 6 30 10 26 6 29 10 24 33 -9
36 -8 36 -45 23 -26 -9 -35 -8 -49 4 -14 13 -19 13 -38 -1z"/>
<path d="M6966 2344 c-4 -15 -6 -27 -4 -28 2 -1 24 -8 51 -17 46 -16 48 -16
62 4 18 26 8 38 -44 56 -49 16 -58 14 -65 -15z"/>
<path d="M6240 2323 c-12 -3 -16 -18 -16 -71 0 -117 -19 -191 -75 -281 l-27
-44 21 -18 c21 -17 23 -17 44 8 31 36 80 159 91 229 8 49 9 118 3 170 -1 11
-13 13 -41 7z"/>
<path d="M6499 2261 l-43 -37 21 -21 c20 -20 20 -20 44 0 13 11 32 25 42 32
13 9 17 20 13 33 -11 34 -33 32 -77 -7z"/>
<path d="M7130 2291 c0 -5 -2 -16 -5 -23 -3 -9 11 -27 35 -47 40 -32 42 -32
61 -15 10 9 19 20 19 23 0 4 -19 21 -42 39 -41 32 -68 41 -68 23z"/>
<path d="M7263 2168 l-22 -21 30 -44 c33 -47 34 -48 66 -30 21 12 21 12 -16
64 l-37 52 -21 -21z"/>
<path d="M6382 2136 c-18 -24 -32 -48 -32 -52 0 -8 31 -33 42 -34 12 0 66 87
59 96 -25 36 -38 34 -69 -10z"/>
<path d="M6675 2142 c-6 -4 -11 -45 -12 -92 -1 -47 -6 -98 -13 -114 -12 -31
-7 -40 26 -50 20 -6 23 -1 34 46 13 54 19 156 12 196 -4 22 -27 29 -47 14z"/>
<path d="M6308 1977 c-20 -63 -17 -80 15 -84 15 -2 28 1 28 7 3 20 4 25 12 38
5 6 6 12 3 12 -3 0 -1 11 4 24 8 21 5 26 -20 34 -28 10 -29 9 -42 -31z"/>
<path d="M7341 2011 c-10 -6 -11 -17 -5 -37 9 -32 11 -43 13 -61 0 -7 10 -13
21 -13 18 0 20 7 20 60 0 51 -3 60 -17 60 -10 0 -24 -4 -32 -9z"/>
<path d="M6597 1807 c-14 -23 -35 -53 -46 -66 -26 -29 -26 -34 -3 -54 17 -16
20 -15 43 11 29 32 79 108 79 120 0 5 -11 14 -24 20 -23 10 -27 8 -49 -31z"/>
<path d="M7366 1842 c-3 -5 -8 -38 -11 -73 -4 -59 -3 -65 15 -66 18 -2 20 4
20 67 0 63 -10 94 -24 72z"/>
<path d="M6295 1834 c-10 -4 -10 -85 -1 -110 3 -7 16 -9 31 -6 25 4 26 7 23
61 -3 48 -6 56 -23 58 -11 1 -25 0 -30 -3z"/>
<path d="M6332 1660 c-22 -9 -22 -10 -6 -47 9 -21 18 -46 21 -55 9 -32 40 -23
131 35 36 24 41 30 32 47 -17 32 -28 32 -72 0 l-43 -31 -14 30 c-16 34 -16 34
-49 21z"/>
<path d="M7327 1643 c-4 -3 -7 -15 -7 -25 0 -10 -4 -18 -9 -18 -18 0 -21 -45
-4 -57 28 -21 37 -15 61 39 18 40 20 53 10 60 -16 9 -42 10 -51 1z"/>
<path d="M5898 1593 l-16 -27 40 -18 c21 -10 62 -24 89 -32 47 -14 49 -14 51
5 0 10 1 24 2 30 1 6 -25 19 -58 29 -32 10 -63 23 -69 29 -16 16 -21 14 -39
-16z"/>
<path d="M6225 1561 c-16 -4 -47 -7 -68 -6 -37 1 -38 0 -35 -29 3 -30 4 -31
53 -30 72 2 125 14 125 29 0 43 -15 50 -75 36z"/>
<path d="M6418 1509 c-10 -5 -18 -16 -18 -22 0 -13 65 -87 76 -87 8 0 34 27
34 37 0 7 -68 84 -73 83 -1 0 -10 -5 -19 -11z"/>
<path d="M7218 1467 c-28 -33 -34 -46 -27 -59 14 -26 29 -22 71 19 29 28 35
40 28 53 -17 32 -36 29 -72 -13z"/>
<path d="M6539 1379 c-13 -25 -9 -30 53 -63 l47 -25 6 30 c4 17 5 32 3 33 -8
6 -89 46 -93 46 -2 0 -9 -9 -16 -21z"/>
<path d="M7079 1367 c-43 -21 -45 -24 -35 -47 5 -14 11 -26 12 -28 5 -8 104
50 104 61 0 13 -19 37 -29 37 -4 0 -27 -11 -52 -23z"/>
<path d="M6697 1305 c-3 -21 0 -28 18 -35 34 -13 95 -21 96 -12 0 4 2 17 5 28
4 23 -5 28 -78 39 -32 5 -36 3 -41 -20z"/>
<path d="M6960 1324 c-90 -14 -89 -14 -87 -42 2 -25 5 -27 42 -24 22 1 48 3
57 3 9 0 19 6 21 13 7 18 -16 52 -33 50z"/>
</g>
</svg>
