<?xml version="1.0" standalone="no"?>
<!DOCTYPE svg PUBLIC "-//W3C//DTD SVG 20010904//EN"
 "http://www.w3.org/TR/2001/REC-SVG-20010904/DTD/svg10.dtd">
<svg version="1.0" xmlns="http://www.w3.org/2000/svg"
 width="800.000000pt" height="800.000000pt" viewBox="0 0 800.000000 800.000000"
 preserveAspectRatio="xMidYMid meet">
<metadata>
Created by potrace 1.14, written by Peter Selinger 2001-2017
</metadata>
<g transform="translate(0.000000,800.000000) scale(0.100000,-0.100000)"
fill="#000000" stroke="none">
<path d="M1497 7954 c-1 -1 -34 -5 -73 -8 -289 -26 -601 -158 -830 -352 -314
-267 -512 -627 -571 -1045 -16 -107 -6 -489 12 -520 2 -3 7 -19 10 -35 2 -16
7 -42 10 -59 25 -133 134 -377 241 -537 70 -106 231 -281 321 -349 32 -24 60
-46 63 -49 15 -16 146 -94 217 -130 139 -69 307 -123 458 -147 63 -10 385 -10
445 0 25 4 61 10 80 13 146 25 416 137 550 228 l65 45 88 -89 c73 -74 97 -92
139 -105 98 -29 173 -14 242 47 61 53 85 107 83 188 -3 86 -27 132 -126 233
l-79 80 33 46 c40 57 116 198 145 271 12 30 26 64 31 75 18 42 59 194 76 280
18 94 25 431 11 525 -40 261 -150 537 -295 739 -87 121 -244 278 -364 364
-212 152 -489 258 -735 282 -67 7 -242 13 -247 9z m272 -560 c197 -36 367
-128 521 -283 135 -136 223 -284 274 -461 36 -126 38 -141 41 -300 3 -110 -1
-167 -15 -235 -80 -402 -362 -716 -747 -831 -74 -22 -112 -27 -233 -30 -147
-3 -189 2 -315 38 -258 74 -494 276 -624 533 -39 78 -85 207 -97 269 -3 17 -8
42 -10 56 -13 67 -11 291 2 370 68 391 344 723 699 842 33 10 69 21 80 24 152
33 273 35 424 8z"/>
<path d="M4388 4705 c-77 -28 -135 -80 -162 -147 -14 -32 -31 -114 -40 -193
-7 -55 -16 -115 -22 -145 -2 -14 -7 -43 -9 -64 -3 -22 -7 -51 -10 -66 -3 -15
-7 -42 -9 -61 -3 -19 -12 -80 -20 -136 -9 -57 -16 -107 -16 -112 0 -5 -26 -3
-57 5 -90 23 -88 21 -59 55 61 72 76 177 37 259 -22 49 -31 59 -259 297 -168
176 -209 205 -296 209 -149 6 -265 -114 -253 -263 7 -96 21 -114 271 -371 81
-84 86 -81 -82 -41 -122 30 -188 28 -256 -5 -128 -62 -181 -194 -137 -336 10
-31 80 -129 144 -200 13 -14 50 -59 82 -100 33 -41 70 -86 81 -100 67 -78 193
-234 191 -235 -1 -1 -22 -13 -47 -27 -25 -14 -62 -35 -82 -47 -78 -44 -109
-61 -175 -97 -37 -21 -85 -48 -105 -61 -21 -13 -39 -23 -42 -23 -12 0 -235
-135 -257 -156 -98 -94 -100 -275 -5 -376 54 -57 106 -78 226 -92 25 -3 97
-12 160 -20 63 -8 142 -18 175 -21 33 -4 67 -8 75 -10 8 -2 40 -7 70 -10 30
-3 66 -8 80 -10 14 -2 52 -7 85 -10 33 -4 61 -8 63 -10 2 -2 -2 -23 -8 -46 -7
-24 -14 -51 -15 -59 -2 -8 -18 -69 -35 -135 -18 -66 -33 -127 -35 -135 -2 -8
-22 -83 -44 -167 -49 -185 -53 -213 -34 -282 29 -115 133 -195 253 -195 36 0
81 6 100 14 31 12 379 250 471 322 20 15 39 28 43 28 3 0 30 -37 60 -82 237
-356 587 -591 1009 -679 166 -35 439 -32 607 7 520 118 934 477 1134 982 77
196 109 365 110 587 1 227 -19 362 -83 555 -177 526 -597 914 -1138 1050 -24
6 -43 16 -43 23 1 7 23 93 50 192 68 253 62 330 -32 424 -73 73 -204 98 -293
56 -22 -11 -163 -106 -313 -212 -150 -106 -275 -193 -278 -193 -3 0 -13 -8
-24 -17 -10 -10 -32 -26 -49 -36 l-30 -18 -94 143 c-51 79 -102 156 -112 172
-11 16 -25 36 -30 45 -96 152 -209 313 -231 328 -81 57 -180 75 -256 48z m352
-1154 c55 -83 115 -162 135 -178 96 -77 239 -74 345 7 14 10 73 53 133 94 106
75 107 76 108 48 3 -118 63 -208 168 -255 34 -15 70 -20 155 -22 114 -2 206
-16 286 -41 384 -125 660 -458 727 -879 11 -73 8 -290 -6 -360 -45 -224 -142
-412 -295 -573 -55 -58 -184 -162 -200 -162 -3 0 -23 -10 -44 -23 -114 -72
-295 -119 -457 -121 -182 -1 -299 25 -460 105 -238 117 -434 344 -525 609 -47
135 -138 212 -255 212 -90 1 -135 -18 -240 -98 l-48 -36 6 29 c3 15 19 80 36
143 42 155 42 210 3 286 -43 83 -119 136 -212 149 -95 12 -117 15 -170 20 -30
4 -63 9 -73 12 -17 4 -17 6 5 17 47 25 144 80 183 104 100 61 141 129 144 237
3 89 -15 125 -126 261 -46 55 -83 103 -83 106 0 2 46 -6 103 -19 56 -13 111
-25 122 -27 11 -2 38 -8 60 -13 157 -35 307 75 329 242 9 63 12 89 22 145 4
25 8 50 9 55 1 6 3 25 3 43 1 17 4 32 7 32 3 0 50 -67 105 -149z"/>
</g>
</svg>
